<svg width="29" height="29" viewBox="0 0 29 29" fill="none" xmlns="http://www.w3.org/2000/svg">
<path d="M2 10.3333L27 10.3333M10.3333 2L10.3333 27M8.66667 2H20.3333C22.6669 2 23.8337 2 24.725 2.45414C25.509 2.85361 26.1464 3.49103 26.5459 4.27504C27 5.16634 27 6.33311 27 8.66667V20.3333C27 22.6669 27 23.8337 26.5459 24.725C26.1464 25.509 25.509 26.1464 24.725 26.5459C23.8337 27 22.6669 27 20.3333 27H8.66667C6.33311 27 5.16634 27 4.27504 26.5459C3.49103 26.1464 2.85361 25.509 2.45414 24.725C2 23.8337 2 22.6669 2 20.3333V8.66667C2 6.33311 2 5.16634 2.45414 4.27504C2.85361 3.49103 3.49103 2.85361 4.27504 2.45414C5.16634 2 6.33311 2 8.66667 2Z" stroke="black" stroke-width="4" stroke-linecap="round" stroke-linejoin="round"/>
</svg>
